<svg width="394" height="21" viewBox="0 0 394 21" fill="none" xmlns="http://www.w3.org/2000/svg">
<path d="M6.72919 0.720802C14.1641 5.05757 24.2702 6.83408 34.2369 8.04199C46.4045 9.50192 58.7168 10.6176 71.0033 11.6596C96.4804 13.811 122.107 15.3478 147.786 16.3375C173.465 17.3272 199.211 17.8404 224.951 18.0126C250.692 18.1847 276.551 18.0126 302.338 17.6745C328.126 17.3364 353.918 16.8108 379.7 16.2637L389.517 16.0578C391.067 16.024 393.557 16.4758 393.95 17.4993C394.363 18.575 392.131 18.9469 390.803 18.9746C364.649 19.5309 338.495 20.0841 312.331 20.4714C286.037 20.8587 259.728 21.0861 233.425 20.9693C207.302 20.8587 181.179 20.4161 155.097 19.4786C128.85 18.5351 102.644 17.1028 76.5627 15.0036C63.6769 13.9647 50.8307 12.7568 38.0241 11.3799C27.4013 10.2273 16.2928 8.8073 7.14253 5.2174C4.86222 4.33683 2.73048 3.32708 0.777117 2.20225C-0.400897 1.51378 -0.25623 0.610161 1.32479 0.207527C2.90581 -0.195108 5.45818 -0.00763321 6.72919 0.733091V0.720802Z" fill="#C317FF"/>
</svg>
