<svg width="216" height="84" viewBox="0 0 216 84" fill="none" xmlns="http://www.w3.org/2000/svg">
<path d="M212.776 26.7391C203.828 37.8721 193.082 47.3786 181.241 55.105C169.445 62.8133 156.604 68.7909 143.273 73.0614C127.766 78.0424 111.604 80.7124 95.3966 81.5816C78.9184 82.469 62.3668 81.5139 46.0226 79.2395C38.2718 78.1621 30.4627 76.7516 23.1899 73.6834C16.9644 71.0576 11.6875 66.8183 7.91327 61.0488C4.09601 55.2195 2.41378 48.2686 3.59766 41.302C4.80431 34.2105 8.58364 27.6968 13.5797 22.7262C18.892 17.4304 25.5223 13.7324 32.3751 10.9713C39.6024 8.08788 47.1914 6.02419 54.8233 4.57206C70.745 1.5429 87.112 1.40238 103.163 3.3932C119.1 5.37101 134.738 9.50097 149.855 15.0258C164.924 20.5324 179.493 27.3949 193.692 34.9496C197.166 36.7973 200.619 38.6823 204.051 40.6046C204.319 40.7529 205.078 41.2864 204.774 40.7269C204.471 40.1674 203.153 39.5714 202.601 39.2644C188.205 31.223 173.51 23.7126 158.297 17.42C143.21 11.1743 127.592 6.12829 111.576 3.11994C95.427 0.0855684 78.8501 -0.900731 62.5009 0.897509C54.4288 1.76697 46.4466 3.36403 38.6462 5.67027C31.2949 7.86147 24.0019 10.6564 17.5285 14.9191C11.3106 19.0127 5.98061 24.5323 2.80588 31.452C-0.229717 38.0464 -0.968365 45.5413 1.41205 52.4766C6.2184 66.4514 20.592 74.7269 33.7563 78.3651C41.5553 80.5198 49.6527 81.527 57.6667 82.4014C66.1132 83.3226 74.6028 83.8743 83.0999 83.981C99.9298 84.1918 116.823 82.659 133.248 78.7997C147.594 75.4322 161.545 70.2379 174.537 63.1125C187.218 56.159 198.979 47.363 209.027 36.7739C211.457 34.2114 213.781 31.5483 215.998 28.7846C216.082 28.6805 213.066 26.3644 212.768 26.7391L212.776 26.7391Z" fill="#C317FF"/>
</svg>
