<svg width="887" height="232" viewBox="0 0 887 232" fill="none" xmlns="http://www.w3.org/2000/svg">
<path d="M872.671 41.4348C837.727 73.8775 795.121 102.356 747.72 126.277C700.503 150.138 648.706 169.564 594.611 184.48C531.69 201.867 465.695 213.146 399.217 219.551C331.628 226.072 263.435 227.612 195.876 225.521C163.838 224.532 131.506 222.654 101.106 216.144C75.0828 210.573 52.6933 200.387 36.2283 185.674C19.5767 170.809 11.5164 152.367 15.2348 133.168C19.0262 113.624 33.4878 95.006 53.2054 80.2713C74.1692 64.575 100.814 52.8854 128.528 43.6825C157.761 34.0542 188.615 26.5599 219.748 20.7144C284.696 8.52028 351.95 4.05328 418.255 5.4486C484.09 6.83703 549.053 14.1398 612.104 25.3577C674.954 36.5381 735.969 51.5227 795.579 68.4778C810.164 72.6242 824.668 76.8772 839.092 81.2366C840.219 81.5721 843.426 82.8303 842.086 81.3878C840.746 79.9454 835.23 78.6573 832.913 77.9617C772.411 59.7354 710.77 43.0241 647.197 29.7471C584.153 16.5656 519.122 6.77201 452.795 2.6068C385.912 -1.59556 317.609 -0.133764 250.701 8.82701C217.664 13.2013 185.116 19.5275 153.432 27.7327C123.575 35.5136 94.0575 44.9182 68.1507 58.101C43.2662 70.7609 22.2665 87.0689 10.3569 106.638C-1.03436 125.29 -2.83555 145.811 8.09212 164.036C30.1518 200.757 90.5987 219.624 145.311 226.21C177.724 230.11 211.175 230.821 244.261 231.194C279.133 231.585 314.12 230.963 349.066 229.131C418.28 225.502 487.468 217.125 554.348 202.553C612.762 189.834 669.253 172.257 721.484 149.679C772.465 127.645 819.357 100.841 858.914 69.5999C868.481 62.04 877.595 54.2336 886.255 46.1806C886.581 45.8773 873.805 40.3453 872.64 41.4367L872.671 41.4348Z" fill="#C317FF"/>
</svg>
