<svg width="166" height="20" viewBox="0 0 166 20" fill="none" xmlns="http://www.w3.org/2000/svg">
<path d="M38.4326 17.8597C28.8422 14.103 18.9639 10.9261 8.87144 8.35265C5.99133 7.61824 3.09405 6.93684 0.179601 6.30846L2.57208 8.14355C7.11251 6.2503 12.3129 6.20346 17.2798 5.9108C22.6488 5.58263 28.0204 5.27564 33.3945 4.98984C44.0265 4.42353 54.6638 3.938 65.3065 3.53324C86.6704 2.72024 108.046 2.23543 129.434 2.07881C141.453 1.99223 153.476 2.00863 165.502 2.12801C165.891 2.13273 164.919 1.30911 164.858 1.26147C164.498 0.970279 163.743 0.276502 163.189 0.274609C141.709 0.0612532 120.236 0.178225 98.7667 0.625531C77.2587 1.07458 55.7716 1.85538 34.3056 2.96792C28.2859 3.28442 22.2687 3.62148 16.2542 3.97911C10.8352 4.30662 5.0299 4.26729 0.0695001 6.3345C-0.132753 6.41907 0.939893 7.28489 0.969159 7.30866C1.38803 7.63255 1.91113 8.04715 2.47718 8.17037C15.4814 10.9999 28.1743 14.836 40.3975 19.6305C41.0206 19.8737 40.2966 19.1276 40.2094 19.0452C39.7049 18.5634 39.1015 18.1645 38.43 17.8688L38.4326 17.8597Z" fill="#C317FF"/>
</svg>
