<svg width="300" height="25" viewBox="0 0 300 25" fill="none" xmlns="http://www.w3.org/2000/svg">
<path d="M69.4343 21.9082C52.1401 16.0714 34.3179 11.0189 16.1008 6.78854C10.9021 5.58129 5.67174 4.44635 0.409632 3.38375L4.71256 6.08407C12.9469 3.75961 22.3511 4.0371 31.3362 3.95858C41.0489 3.85733 50.766 3.78561 60.4875 3.74341C79.72 3.65869 98.9613 3.68625 118.211 3.82609C156.853 4.10612 195.512 4.84167 234.188 6.03275C255.923 6.70411 277.663 7.51839 299.408 8.47559C300.112 8.50775 298.364 7.30246 298.254 7.23245C297.608 6.8053 296.252 5.79426 295.249 5.75512C256.412 4.04534 217.58 2.79362 178.753 1.99997C139.855 1.20614 100.991 0.873401 62.1607 1.00172C51.2714 1.04395 40.3866 1.11484 29.5062 1.2144C19.7031 1.31145 9.20614 0.874745 0.210211 3.41259C-0.156589 3.51646 1.77204 4.78681 1.82466 4.82166C2.57798 5.29804 3.51862 5.90698 4.54061 6.11498C28.0196 10.8919 50.9231 17.043 72.9649 24.4914C74.0885 24.8693 72.7888 23.7878 72.6321 23.6679C71.726 22.9671 70.64 22.3747 69.4294 21.9207L69.4343 21.9082Z" fill="#C317FF"/>
</svg>
