<svg width="301" height="19" viewBox="0 0 301 19" fill="none" xmlns="http://www.w3.org/2000/svg">
<path d="M2.05387 9.9393C40.7347 9.09583 79.4104 8.16899 118.081 7.15879C156.553 6.15472 195.02 5.0685 233.48 3.90015C255.174 3.2418 276.867 2.55709 298.557 1.84603L298.94 0.00706301L206.397 4.79756L114.446 9.56232L62.5731 12.249C61.6781 12.295 60.4613 12.6279 60.2039 13.1943C59.9464 13.7607 60.7862 14.0696 61.6199 14.0972C93.4963 15.1436 125.459 15.0406 157.375 14.6838C166.443 14.5833 175.512 14.4687 184.58 14.3399C185.466 14.3271 186.701 13.9354 186.946 13.3947C187.192 12.8541 186.373 12.501 185.53 12.4899C161.088 12.2104 136.661 12.645 112.251 13.7938C111.356 13.8361 110.14 14.1763 109.882 14.739C109.625 15.3017 110.464 15.6107 111.298 15.6419C133.775 16.4621 156.274 16.7907 178.793 16.6276C179.823 16.6276 181.199 16.4308 181.668 15.7964C182.085 15.2318 181.249 14.7739 180.314 14.7721C173.285 14.7532 166.284 15.3024 159.499 16.4051C158.371 16.589 156.535 17.8983 158.641 18.1264C166.458 18.9774 174.428 19.208 182.346 18.8123C183.265 18.7645 184.672 18.382 184.776 17.7457C184.881 17.1094 183.55 16.9292 182.729 16.9697C175.534 17.3361 168.29 17.1364 161.182 16.3757L160.32 18.0969C166.34 17.1124 172.554 16.6176 178.793 16.6258L180.326 14.7703C157.816 14.9358 135.318 14.6078 112.831 13.7864L111.877 15.6364C135.877 14.5036 159.925 14.0745 184.022 14.3491L184.973 12.501C153.234 12.9276 121.48 13.3506 89.7355 12.8688C80.8694 12.7364 72.0073 12.5267 63.1494 12.2398L62.1992 14.088L154.742 9.29566L246.693 4.53091L298.563 1.84419C299.483 1.79638 300.889 1.41571 300.994 0.77943C301.104 0.106369 299.768 -0.0241973 298.946 0.00338711C260.292 1.26982 221.639 2.45166 182.986 3.54891C144.514 4.65228 106.037 5.66861 67.5569 6.5979C45.8544 7.12385 24.1477 7.62343 2.437 8.09666C1.51749 8.11689 0.107572 8.54537 0.00642516 9.16326C-0.103916 9.84184 1.23244 9.95769 2.05387 9.9393Z" fill="#C317FF"/>
</svg>
