<svg width="148" height="31" viewBox="0 0 148 31" fill="none" xmlns="http://www.w3.org/2000/svg">
<path d="M17.1223 20.7757C16.3588 19.8759 15.4591 19.2216 14.4503 18.8126C13.4142 18.4036 12.1055 17.9674 10.4969 17.5857C8.94283 17.1767 7.77045 16.795 7.0343 16.4133C6.29815 16.0316 5.91645 15.459 5.91645 14.7229C5.91645 14.0685 6.18909 13.5505 6.73439 13.1688C7.27968 12.7871 8.0431 12.6235 9.05189 12.6235C10.1425 12.6235 11.015 12.8962 11.642 13.4142C12.2964 13.9322 12.6508 14.6138 12.7326 15.5136H18.0765C17.9129 13.2779 17.0405 11.5057 15.4864 10.1969C13.905 8.88824 11.8329 8.23389 9.18821 8.23389C7.41601 8.23389 5.86192 8.5338 4.55321 9.10636C3.2445 9.67892 2.23571 10.4969 1.52682 11.5057C0.817942 12.5144 0.463501 13.6323 0.463501 14.8592C0.463501 16.3588 0.845207 17.5312 1.60862 18.4036C2.37203 19.2761 3.27177 19.9305 4.30783 20.3394C5.34389 20.7757 6.70712 21.1846 8.34301 21.5663C9.92436 22.0026 11.0967 22.3843 11.8329 22.7387C12.569 23.0932 12.9235 23.6385 12.9235 24.3473C12.9235 25.0017 12.6236 25.547 12.0237 25.9832C11.4239 26.4195 10.606 26.6103 9.54266 26.6103C8.45207 26.6103 7.55233 26.3377 6.81618 25.7651C6.08004 25.2198 5.67106 24.5109 5.56201 23.6657H0C0.0817942 25.029 0.545295 26.2559 1.36324 27.3737C2.20844 28.4916 3.3263 29.3641 4.77133 30.0184C6.21636 30.6728 7.82498 30.9999 9.62445 30.9999C11.3694 30.9999 12.8962 30.7273 14.2049 30.1547C15.5136 29.5822 16.5224 28.7915 17.2313 27.7827C17.9402 26.7739 18.2946 25.6288 18.2946 24.3746C18.2674 22.8478 17.8857 21.6754 17.1223 20.7757Z" fill="#C939FF"/>
<path d="M32.3084 26.1742C30.727 26.1742 29.4456 25.6016 28.5186 24.4565C27.5916 23.3114 27.1281 21.6755 27.1281 19.5761C27.1281 17.4494 27.5916 15.8136 28.5186 14.6684C29.4456 13.5233 30.6998 12.9235 32.3084 12.9235C33.4262 12.9235 34.3532 13.1962 35.1167 13.7414C35.8801 14.2867 36.3981 15.0229 36.7253 15.9772H42.7235C42.0964 13.5233 40.924 11.5875 39.1246 10.2243C37.3251 8.86106 35.0621 8.17944 32.3357 8.17944C30.209 8.17944 28.3277 8.64294 26.6919 9.59721C25.056 10.5515 23.7745 11.8602 22.8475 13.5779C21.9205 15.2955 21.457 17.2859 21.457 19.5761C21.457 21.8663 21.9205 23.8567 22.8475 25.5743C23.7745 27.292 25.056 28.6007 26.6919 29.555C28.3277 30.5093 30.209 30.9728 32.3357 30.9728C35.0349 30.9728 37.2978 30.2639 39.0973 28.8734C40.8968 27.4556 42.0964 25.5743 42.7235 23.175H36.7253C36.0164 25.1654 34.5441 26.1742 32.3084 26.1742Z" fill="#C939FF"/>
<path d="M57.3104 19.6034L67.0166 8.53394H59.7642L52.3755 17.8857V9.97897H46.8135V30.5638H52.3755V21.1848L59.846 30.5638H67.0984L57.3104 19.6034Z" fill="#C939FF"/>
<path d="M70.043 8.53394V30.5638H75.605V8.53394H70.043Z" fill="white"/>
<path d="M95.8626 8.53394L90.3006 25.4381L84.7386 8.53394H78.7676L86.8925 30.5638H93.6541L101.806 8.53394H95.8626Z" fill="white"/>
<path d="M120.837 8.53388V11.6693C120.101 10.6605 119.12 9.81533 117.866 9.16097C116.639 8.50662 115.194 8.17944 113.558 8.17944C111.676 8.17944 109.986 8.64294 108.459 9.56994C106.932 10.4969 105.733 11.8329 104.833 13.5506C103.933 15.2683 103.497 17.2586 103.497 19.467C103.497 21.73 103.933 23.7203 104.833 25.4653C105.733 27.2102 106.932 28.5462 108.459 29.5005C109.986 30.4547 111.676 30.9455 113.53 30.9455C115.166 30.9455 116.639 30.6183 117.893 29.9367C119.147 29.2551 120.129 28.4099 120.865 27.3738V30.5911H126.481V8.53388H120.837ZM120.047 23.0387C119.529 24.0203 118.793 24.7564 117.893 25.2744C116.993 25.7925 116.012 26.0378 114.976 26.0378C113.967 26.0378 113.012 25.7652 112.14 25.2472C111.268 24.7291 110.531 23.9657 109.986 22.9569C109.441 21.9481 109.168 20.803 109.168 19.467C109.168 18.1311 109.441 16.986 109.986 16.0317C110.531 15.0502 111.24 14.314 112.113 13.8232C112.985 13.3325 113.939 13.0598 114.976 13.0598C116.012 13.0598 116.966 13.3325 117.893 13.8505C118.793 14.3685 119.501 15.1047 120.047 16.0862C120.565 17.0677 120.837 18.2129 120.837 19.5761C120.837 20.9121 120.592 22.0845 120.047 23.0387Z" fill="white"/>
<path d="M140.277 9.21542C139.131 9.86977 138.177 10.7968 137.468 11.9692V8.5338H131.906V30.5637H137.468V19.6033C137.468 17.5584 137.904 16.1407 138.804 15.2955C139.704 14.4775 141.013 14.0685 142.758 14.0685H144.23V8.23389C142.758 8.23389 141.449 8.56106 140.277 9.21542Z" fill="white"/>
<path d="M54.5019 5.07122L49.5397 0.245361L44.7139 5.07122H46.8133V8.34299H52.3753V8.1794V5.07122H54.5019Z" fill="white"/>
<path d="M74.8143 1.06322C74.2963 0.545187 73.6147 0.299805 72.824 0.299805C72.0333 0.299805 71.3517 0.545187 70.8336 1.06322C70.3156 1.55398 70.043 2.20834 70.043 2.94448C70.043 3.7079 70.3156 4.33498 70.8336 4.85301C71.3517 5.37104 72.0333 5.61643 72.824 5.61643C73.6147 5.61643 74.2963 5.37104 74.8143 4.85301C75.3323 4.33498 75.605 3.7079 75.605 2.94448C75.6322 2.20834 75.3596 1.55398 74.8143 1.06322Z" fill="white"/>
<path d="M72.8242 5.88918C71.9517 5.88918 71.2155 5.61654 70.643 5.04398C70.0704 4.49868 69.7705 3.7898 69.7705 2.94459C69.7705 2.09938 70.0704 1.41777 70.643 0.845207C71.2155 0.299912 71.9517 0 72.8242 0C73.6966 0 74.4328 0.272647 75.0053 0.845207C75.5779 1.3905 75.8778 2.09938 75.8778 2.94459C75.8778 3.7898 75.5779 4.47142 75.0053 5.04398C74.4328 5.61654 73.6966 5.88918 72.8242 5.88918ZM72.8242 0.572559C72.088 0.572559 71.4882 0.790677 71.0247 1.25418C70.5339 1.71768 70.3158 2.26297 70.3158 2.94459C70.3158 3.62621 70.5612 4.1715 71.0247 4.635C71.4882 5.09851 72.088 5.31662 72.8242 5.31662C73.5603 5.31662 74.1601 5.09851 74.6236 4.635C75.0871 4.1715 75.3325 3.62621 75.3325 2.94459C75.3325 2.26297 75.1144 1.69041 74.6236 1.25418C74.1601 0.790677 73.5603 0.572559 72.8242 0.572559Z" fill="white"/>
<path d="M140.44 27.0194C140.44 25.0564 142.049 23.4478 144.039 23.4478C146.002 23.4478 147.584 25.0836 147.584 27.0467C147.557 29.0098 145.948 30.5911 143.985 30.5638C142.049 30.5638 140.44 28.9825 140.44 27.0194ZM144.012 30.1549C145.73 30.1549 147.148 28.7644 147.148 27.0467C147.148 25.3018 145.757 23.9113 144.012 23.9113C142.294 23.9113 140.877 25.329 140.904 27.0467C140.904 28.7371 142.294 30.1549 144.012 30.1549Z" fill="white"/>
<path d="M143.385 28.9008C143.167 28.9008 142.949 28.9008 142.73 28.9008C142.73 27.6466 142.73 26.3924 142.73 25.1655H142.758C143.248 25.1655 143.712 25.1655 144.203 25.1655C144.448 25.1655 144.666 25.2201 144.884 25.3291C145.184 25.4927 145.348 25.7654 145.402 26.1198C145.43 26.3379 145.402 26.5833 145.321 26.7741C145.212 27.0195 145.021 27.1559 144.803 27.2649C144.775 27.2649 144.775 27.2922 144.748 27.2922C145.021 27.8102 145.321 28.3555 145.593 28.8735C145.566 28.8735 145.539 28.8735 145.511 28.8735C145.321 28.8735 145.13 28.8735 144.912 28.8735C144.884 28.8735 144.857 28.8735 144.83 28.819C144.612 28.3828 144.366 27.9193 144.121 27.483C144.094 27.4285 144.066 27.4285 144.012 27.4285C143.821 27.4285 143.603 27.4285 143.412 27.4285C143.385 27.4285 143.385 27.4285 143.358 27.4285C143.385 27.9465 143.385 28.41 143.385 28.9008ZM143.385 26.9377C143.63 26.9377 143.903 26.9377 144.148 26.9377C144.285 26.9377 144.421 26.8832 144.53 26.8014C144.721 26.6651 144.775 26.447 144.748 26.2289C144.721 26.0107 144.612 25.8199 144.394 25.7381C144.285 25.6836 144.176 25.6836 144.066 25.6836C143.848 25.6836 143.63 25.6836 143.439 25.6836C143.439 25.6836 143.412 25.6836 143.385 25.6836C143.385 26.0925 143.385 26.5015 143.385 26.9377Z" fill="white"/>
</svg>
