<svg width="230" height="21" viewBox="0 0 230 21" fill="none" xmlns="http://www.w3.org/2000/svg">
<path d="M3.92821 20.2792C8.26839 15.9424 14.1679 14.1659 19.986 12.958C27.0889 11.4981 34.2763 10.3824 41.4486 9.34045C56.3211 7.18896 71.281 5.6522 86.2711 4.66252C101.261 3.67284 116.29 3.15955 131.317 2.98744C146.343 2.81532 161.439 2.98744 176.492 3.32553C191.545 3.66362 206.602 4.18919 221.652 4.73628L227.383 4.94221C228.288 4.97602 229.741 4.52421 229.971 3.50072C230.212 2.42498 228.909 2.05308 228.134 2.02542C212.866 1.4691 197.599 0.915867 182.325 0.528601C166.976 0.141334 151.618 -0.0861065 136.263 0.0306881C121.014 0.141336 105.764 0.583928 90.5388 1.52136C75.217 2.46494 59.9193 3.89721 44.694 5.99644C37.1718 7.0353 29.6727 8.2432 22.1968 9.62015C15.9957 10.7727 9.51103 12.1927 4.1695 15.7826C2.83835 16.6632 1.59393 17.6729 0.453647 18.7977C-0.234026 19.4862 -0.149576 20.3898 0.773354 20.7925C1.69628 21.1951 3.18624 21.0076 3.92821 20.2669V20.2792Z" fill="#C317FF"/>
</svg>
